<mxfile host="app.diagrams.net" modified="2021-12-06T21:11:28.568Z" agent="5.0 (Windows NT 10.0; Win64; x64) AppleWebKit/537.36 (KHTML, like Gecko) Chrome/96.0.4664.45 Safari/537.36" etag="k4VfyLpJWu2FmCqDyaTH" version="15.9.1" type="github">
  <diagram name="Page-1" id="97916047-d0de-89f5-080d-49f4d83e522f">
    <mxGraphModel dx="1422" dy="2040.5" grid="1" gridSize="10" guides="1" tooltips="1" connect="1" arrows="1" fold="1" page="1" pageScale="1.5" pageWidth="1169" pageHeight="827" background="none" math="0" shadow="0">
      <root>
        <mxCell id="0" />
        <mxCell id="1" parent="0" />
        <mxCell id="mbSp9wg83jZxlXyQgTcZ-56" value="" style="endArrow=none;html=1;rounded=0;fontSize=26;entryX=0.5;entryY=1;entryDx=0;entryDy=0;" edge="1" parent="1">
          <mxGeometry width="50" height="50" relative="1" as="geometry">
            <mxPoint x="850" y="320" as="sourcePoint" />
            <mxPoint x="850" y="290" as="targetPoint" />
          </mxGeometry>
        </mxCell>
        <mxCell id="mbSp9wg83jZxlXyQgTcZ-57" value="" style="endArrow=none;html=1;rounded=0;fontSize=26;" edge="1" parent="1">
          <mxGeometry width="50" height="50" relative="1" as="geometry">
            <mxPoint x="330" y="320" as="sourcePoint" />
            <mxPoint x="1360" y="320" as="targetPoint" />
          </mxGeometry>
        </mxCell>
        <mxCell id="mbSp9wg83jZxlXyQgTcZ-58" value="&lt;font style=&quot;font-size: 15px&quot;&gt;World&lt;/font&gt;" style="rounded=1;whiteSpace=wrap;html=1;fontSize=26;fillColor=#dae8fc;strokeColor=#6c8ebf;" vertex="1" parent="1">
          <mxGeometry x="280" y="370" width="100" height="50" as="geometry" />
        </mxCell>
        <mxCell id="mbSp9wg83jZxlXyQgTcZ-59" value="" style="endArrow=classic;html=1;rounded=0;fontSize=15;entryX=0.5;entryY=0;entryDx=0;entryDy=0;" edge="1" parent="1" target="mbSp9wg83jZxlXyQgTcZ-58">
          <mxGeometry width="50" height="50" relative="1" as="geometry">
            <mxPoint x="330" y="320" as="sourcePoint" />
            <mxPoint x="860" y="480" as="targetPoint" />
          </mxGeometry>
        </mxCell>
        <mxCell id="mbSp9wg83jZxlXyQgTcZ-60" value="Americas" style="rounded=1;whiteSpace=wrap;html=1;fontSize=15;fillColor=#dae8fc;strokeColor=#6c8ebf;" vertex="1" parent="1">
          <mxGeometry x="10" y="560" width="120" height="60" as="geometry" />
        </mxCell>
        <mxCell id="mbSp9wg83jZxlXyQgTcZ-61" value="Asia" style="rounded=1;whiteSpace=wrap;html=1;fontSize=15;fillColor=#dae8fc;strokeColor=#6c8ebf;" vertex="1" parent="1">
          <mxGeometry x="180" y="560" width="120" height="60" as="geometry" />
        </mxCell>
        <mxCell id="mbSp9wg83jZxlXyQgTcZ-62" value="Africa" style="rounded=1;whiteSpace=wrap;html=1;fontSize=15;fillColor=#dae8fc;strokeColor=#6c8ebf;" vertex="1" parent="1">
          <mxGeometry x="380" y="560" width="120" height="60" as="geometry" />
        </mxCell>
        <mxCell id="mbSp9wg83jZxlXyQgTcZ-64" value="" style="endArrow=none;html=1;rounded=0;fontSize=26;" edge="1" parent="1">
          <mxGeometry width="50" height="50" relative="1" as="geometry">
            <mxPoint x="70" y="460" as="sourcePoint" />
            <mxPoint x="590" y="460" as="targetPoint" />
          </mxGeometry>
        </mxCell>
        <mxCell id="mbSp9wg83jZxlXyQgTcZ-65" value="" style="endArrow=classic;html=1;rounded=0;fontSize=15;entryX=0.5;entryY=0;entryDx=0;entryDy=0;" edge="1" parent="1" target="mbSp9wg83jZxlXyQgTcZ-62">
          <mxGeometry width="50" height="50" relative="1" as="geometry">
            <mxPoint x="440" y="460" as="sourcePoint" />
            <mxPoint x="680" y="550" as="targetPoint" />
          </mxGeometry>
        </mxCell>
        <mxCell id="mbSp9wg83jZxlXyQgTcZ-66" value="" style="endArrow=classic;html=1;rounded=0;fontSize=15;entryX=0.5;entryY=0;entryDx=0;entryDy=0;" edge="1" parent="1" target="mbSp9wg83jZxlXyQgTcZ-61">
          <mxGeometry width="50" height="50" relative="1" as="geometry">
            <mxPoint x="240" y="460" as="sourcePoint" />
            <mxPoint x="680" y="550" as="targetPoint" />
          </mxGeometry>
        </mxCell>
        <mxCell id="mbSp9wg83jZxlXyQgTcZ-67" value="" style="endArrow=classic;html=1;rounded=0;fontSize=15;" edge="1" parent="1" target="mbSp9wg83jZxlXyQgTcZ-60">
          <mxGeometry width="50" height="50" relative="1" as="geometry">
            <mxPoint x="70" y="460" as="sourcePoint" />
            <mxPoint x="680" y="550" as="targetPoint" />
          </mxGeometry>
        </mxCell>
        <mxCell id="mbSp9wg83jZxlXyQgTcZ-68" value="&lt;span style=&quot;font-size: 15px&quot;&gt;Home&lt;/span&gt;" style="rounded=1;whiteSpace=wrap;html=1;fontSize=26;fillColor=#dae8fc;strokeColor=#6c8ebf;" vertex="1" parent="1">
          <mxGeometry x="800" y="240" width="100" height="50" as="geometry" />
        </mxCell>
        <mxCell id="mbSp9wg83jZxlXyQgTcZ-69" value="&lt;h1&gt;News Website Sitemap&lt;/h1&gt;&lt;p&gt;&lt;br&gt;&lt;/p&gt;" style="text;html=1;strokeColor=none;fillColor=none;spacing=5;spacingTop=-20;whiteSpace=wrap;overflow=hidden;rounded=0;fontSize=15;" vertex="1" parent="1">
          <mxGeometry x="0.5" y="0.5" width="360" height="120" as="geometry" />
        </mxCell>
        <mxCell id="mbSp9wg83jZxlXyQgTcZ-71" value="" style="endArrow=none;html=1;rounded=0;fontSize=15;exitX=0.5;exitY=1;exitDx=0;exitDy=0;" edge="1" parent="1" source="mbSp9wg83jZxlXyQgTcZ-58">
          <mxGeometry width="50" height="50" relative="1" as="geometry">
            <mxPoint x="620" y="620" as="sourcePoint" />
            <mxPoint x="330" y="460" as="targetPoint" />
          </mxGeometry>
        </mxCell>
        <mxCell id="mbSp9wg83jZxlXyQgTcZ-73" value="Australia" style="rounded=1;whiteSpace=wrap;html=1;fontSize=15;fillColor=#dae8fc;strokeColor=#6c8ebf;" vertex="1" parent="1">
          <mxGeometry x="530" y="560" width="120" height="60" as="geometry" />
        </mxCell>
        <mxCell id="mbSp9wg83jZxlXyQgTcZ-74" value="" style="endArrow=classic;html=1;rounded=0;fontSize=15;entryX=0.5;entryY=0;entryDx=0;entryDy=0;" edge="1" parent="1" target="mbSp9wg83jZxlXyQgTcZ-73">
          <mxGeometry width="50" height="50" relative="1" as="geometry">
            <mxPoint x="590" y="460" as="sourcePoint" />
            <mxPoint x="830" y="550" as="targetPoint" />
          </mxGeometry>
        </mxCell>
        <mxCell id="mbSp9wg83jZxlXyQgTcZ-85" value="&lt;font style=&quot;font-size: 15px&quot;&gt;U.S.&lt;/font&gt;" style="rounded=1;whiteSpace=wrap;html=1;fontSize=26;fillColor=#dae8fc;strokeColor=#6c8ebf;" vertex="1" parent="1">
          <mxGeometry x="1310" y="370" width="100" height="50" as="geometry" />
        </mxCell>
        <mxCell id="mbSp9wg83jZxlXyQgTcZ-86" value="" style="endArrow=classic;html=1;rounded=0;fontSize=15;entryX=0.5;entryY=0;entryDx=0;entryDy=0;" edge="1" parent="1" target="mbSp9wg83jZxlXyQgTcZ-85">
          <mxGeometry width="50" height="50" relative="1" as="geometry">
            <mxPoint x="1360" y="320" as="sourcePoint" />
            <mxPoint x="1890" y="480" as="targetPoint" />
          </mxGeometry>
        </mxCell>
        <mxCell id="mbSp9wg83jZxlXyQgTcZ-87" value="" style="endArrow=none;dashed=1;html=1;dashPattern=1 3;strokeWidth=2;rounded=0;fontSize=15;entryX=0.5;entryY=1;entryDx=0;entryDy=0;" edge="1" parent="1" target="mbSp9wg83jZxlXyQgTcZ-85">
          <mxGeometry width="50" height="50" relative="1" as="geometry">
            <mxPoint x="1360" y="480" as="sourcePoint" />
            <mxPoint x="970" y="570" as="targetPoint" />
          </mxGeometry>
        </mxCell>
        <mxCell id="mbSp9wg83jZxlXyQgTcZ-90" value="&lt;font style=&quot;font-size: 15px&quot;&gt;https://www.nytimes.com/2021/12/05/us/nathaniel-woods-alabama-sentenced.html&lt;br&gt;&lt;b&gt;External Link&lt;/b&gt;&lt;br&gt;&lt;/font&gt;" style="rounded=1;whiteSpace=wrap;html=1;fontSize=26;fillColor=#e1d5e7;strokeColor=#9673a6;" vertex="1" parent="1">
          <mxGeometry x="1040" y="480" width="640" height="70" as="geometry" />
        </mxCell>
      </root>
    </mxGraphModel>
  </diagram>
</mxfile>
